# xmcd CD database file
#
# Track frame offsets:
#	150
#	15941
#	27608
#	43128
#	58631
#	74886
#	91536
#	110532
#	129506
#	146003
#	161596
#	194391
#
# Disc length: 2819 seconds
#
# Revision: 1
# Processed by: cddbd v1.5.2PL0 Copyright (c) Steve Scherf et al.
# Submitted via: CDex 1.51
#
DISCID=a80b010c
DTITLE=Sixwire - Sixwire
DYEAR=2001
DGENRE=Country
TTITLE0=Way Too Deep
TTITLE1=I Hope She Comes Around
TTITLE2=Look at Me Now
TTITLE3=Saving Grace
TTITLE4=Say It Simple
TTITLE5=Please Believe
TTITLE6=Jack
TTITLE7=I Can't Help how I Feel
TTITLE8=Broken
TTITLE9=I Heard That
TTITLE10=Brave Soul
TTITLE11=Video
EXTD=YEAR: 2001
EXTT0=
EXTT1=
EXTT2=
EXTT3=
EXTT4=
EXTT5=
EXTT6=
EXTT7=
EXTT8=
EXTT9=
EXTT10=
EXTT11=
PLAYORDER=
